<mxfile host="app.diagrams.net" agent="Mozilla/5.0 (Windows NT 10.0; Win64; x64) AppleWebKit/537.36 (KHTML, like Gecko) Chrome/126.0.0.0 Safari/537.36" version="24.7.6">
  <diagram name="Page-1" id="MwBCtYxcw5RzmPNedJgE">
    <mxGraphModel dx="1500" dy="796" grid="1" gridSize="10" guides="1" tooltips="1" connect="1" arrows="1" fold="1" page="1" pageScale="1" pageWidth="1654" pageHeight="2336" math="0" shadow="0">
      <root>
        <mxCell id="0" />
        <mxCell id="1" parent="0" />
        <mxCell id="IVPFjOqfa4s9VkKtOlMq-8" style="edgeStyle=orthogonalEdgeStyle;rounded=0;orthogonalLoop=1;jettySize=auto;html=1;exitX=0.5;exitY=1;exitDx=0;exitDy=0;entryX=0.5;entryY=0;entryDx=0;entryDy=0;" edge="1" parent="1" source="IVPFjOqfa4s9VkKtOlMq-1" target="IVPFjOqfa4s9VkKtOlMq-2">
          <mxGeometry relative="1" as="geometry" />
        </mxCell>
        <mxCell id="IVPFjOqfa4s9VkKtOlMq-9" style="edgeStyle=orthogonalEdgeStyle;rounded=0;orthogonalLoop=1;jettySize=auto;html=1;exitX=0.5;exitY=1;exitDx=0;exitDy=0;" edge="1" parent="1" target="IVPFjOqfa4s9VkKtOlMq-3">
          <mxGeometry relative="1" as="geometry">
            <mxPoint x="750" y="300" as="sourcePoint" />
          </mxGeometry>
        </mxCell>
        <mxCell id="IVPFjOqfa4s9VkKtOlMq-11" style="edgeStyle=orthogonalEdgeStyle;rounded=0;orthogonalLoop=1;jettySize=auto;html=1;exitX=0.5;exitY=1;exitDx=0;exitDy=0;entryX=0.5;entryY=0;entryDx=0;entryDy=0;" edge="1" parent="1" target="IVPFjOqfa4s9VkKtOlMq-4">
          <mxGeometry relative="1" as="geometry">
            <mxPoint x="750" y="300" as="sourcePoint" />
          </mxGeometry>
        </mxCell>
        <mxCell id="IVPFjOqfa4s9VkKtOlMq-12" style="edgeStyle=orthogonalEdgeStyle;rounded=0;orthogonalLoop=1;jettySize=auto;html=1;exitX=0.5;exitY=1;exitDx=0;exitDy=0;entryX=0.5;entryY=0;entryDx=0;entryDy=0;" edge="1" parent="1" target="IVPFjOqfa4s9VkKtOlMq-5">
          <mxGeometry relative="1" as="geometry">
            <mxPoint x="750" y="300" as="sourcePoint" />
          </mxGeometry>
        </mxCell>
        <mxCell id="IVPFjOqfa4s9VkKtOlMq-13" style="edgeStyle=orthogonalEdgeStyle;rounded=0;orthogonalLoop=1;jettySize=auto;html=1;exitX=0.5;exitY=1;exitDx=0;exitDy=0;entryX=0.5;entryY=0;entryDx=0;entryDy=0;" edge="1" parent="1" target="IVPFjOqfa4s9VkKtOlMq-6">
          <mxGeometry relative="1" as="geometry">
            <mxPoint x="750" y="300" as="sourcePoint" />
          </mxGeometry>
        </mxCell>
        <mxCell id="IVPFjOqfa4s9VkKtOlMq-1" value="Web Application" style="rounded=0;whiteSpace=wrap;html=1;fillColor=#e3c800;fontColor=#000000;strokeColor=#B09500;fontStyle=1" vertex="1" parent="1">
          <mxGeometry x="770" y="220" width="120" height="60" as="geometry" />
        </mxCell>
        <mxCell id="IVPFjOqfa4s9VkKtOlMq-26" style="edgeStyle=orthogonalEdgeStyle;rounded=0;orthogonalLoop=1;jettySize=auto;html=1;exitX=0.5;exitY=1;exitDx=0;exitDy=0;entryX=0;entryY=0.5;entryDx=0;entryDy=0;" edge="1" parent="1" source="IVPFjOqfa4s9VkKtOlMq-2" target="IVPFjOqfa4s9VkKtOlMq-15">
          <mxGeometry relative="1" as="geometry">
            <Array as="points">
              <mxPoint x="200" y="400" />
              <mxPoint x="140" y="400" />
              <mxPoint x="140" y="450" />
            </Array>
          </mxGeometry>
        </mxCell>
        <mxCell id="IVPFjOqfa4s9VkKtOlMq-27" style="edgeStyle=orthogonalEdgeStyle;rounded=0;orthogonalLoop=1;jettySize=auto;html=1;exitX=0.5;exitY=1;exitDx=0;exitDy=0;entryX=0;entryY=0.5;entryDx=0;entryDy=0;" edge="1" parent="1" source="IVPFjOqfa4s9VkKtOlMq-2" target="IVPFjOqfa4s9VkKtOlMq-17">
          <mxGeometry relative="1" as="geometry">
            <Array as="points">
              <mxPoint x="200" y="400" />
              <mxPoint x="140" y="400" />
              <mxPoint x="140" y="550" />
            </Array>
          </mxGeometry>
        </mxCell>
        <mxCell id="IVPFjOqfa4s9VkKtOlMq-28" style="edgeStyle=orthogonalEdgeStyle;rounded=0;orthogonalLoop=1;jettySize=auto;html=1;exitX=0.5;exitY=1;exitDx=0;exitDy=0;entryX=0;entryY=0.5;entryDx=0;entryDy=0;" edge="1" parent="1" source="IVPFjOqfa4s9VkKtOlMq-2" target="IVPFjOqfa4s9VkKtOlMq-18">
          <mxGeometry relative="1" as="geometry">
            <Array as="points">
              <mxPoint x="200" y="400" />
              <mxPoint x="140" y="400" />
              <mxPoint x="140" y="650" />
            </Array>
          </mxGeometry>
        </mxCell>
        <mxCell id="IVPFjOqfa4s9VkKtOlMq-2" value="Background Study&amp;nbsp;" style="rounded=0;whiteSpace=wrap;html=1;fillColor=#e3c800;fontColor=#000000;strokeColor=#B09500;fontStyle=1" vertex="1" parent="1">
          <mxGeometry x="140" y="320" width="120" height="60" as="geometry" />
        </mxCell>
        <mxCell id="IVPFjOqfa4s9VkKtOlMq-29" style="edgeStyle=orthogonalEdgeStyle;rounded=0;orthogonalLoop=1;jettySize=auto;html=1;exitX=0.5;exitY=1;exitDx=0;exitDy=0;entryX=0;entryY=0.5;entryDx=0;entryDy=0;" edge="1" parent="1" source="IVPFjOqfa4s9VkKtOlMq-3" target="IVPFjOqfa4s9VkKtOlMq-22">
          <mxGeometry relative="1" as="geometry">
            <Array as="points">
              <mxPoint x="440" y="400" />
              <mxPoint x="380" y="400" />
              <mxPoint x="380" y="450" />
            </Array>
          </mxGeometry>
        </mxCell>
        <mxCell id="IVPFjOqfa4s9VkKtOlMq-30" style="edgeStyle=orthogonalEdgeStyle;rounded=0;orthogonalLoop=1;jettySize=auto;html=1;exitX=0.5;exitY=1;exitDx=0;exitDy=0;entryX=0;entryY=0.5;entryDx=0;entryDy=0;" edge="1" parent="1" source="IVPFjOqfa4s9VkKtOlMq-3" target="IVPFjOqfa4s9VkKtOlMq-24">
          <mxGeometry relative="1" as="geometry">
            <Array as="points">
              <mxPoint x="440" y="400" />
              <mxPoint x="380" y="400" />
              <mxPoint x="380" y="550" />
            </Array>
          </mxGeometry>
        </mxCell>
        <mxCell id="IVPFjOqfa4s9VkKtOlMq-31" style="edgeStyle=orthogonalEdgeStyle;rounded=0;orthogonalLoop=1;jettySize=auto;html=1;exitX=0.5;exitY=1;exitDx=0;exitDy=0;entryX=0;entryY=0.5;entryDx=0;entryDy=0;" edge="1" parent="1" source="IVPFjOqfa4s9VkKtOlMq-3" target="IVPFjOqfa4s9VkKtOlMq-25">
          <mxGeometry relative="1" as="geometry">
            <Array as="points">
              <mxPoint x="440" y="400" />
              <mxPoint x="380" y="400" />
              <mxPoint x="380" y="650" />
            </Array>
          </mxGeometry>
        </mxCell>
        <mxCell id="IVPFjOqfa4s9VkKtOlMq-3" value="Requirement" style="rounded=0;whiteSpace=wrap;html=1;fillColor=#e3c800;fontColor=#000000;strokeColor=#B09500;fontStyle=1" vertex="1" parent="1">
          <mxGeometry x="380" y="320" width="120" height="60" as="geometry" />
        </mxCell>
        <mxCell id="IVPFjOqfa4s9VkKtOlMq-48" style="edgeStyle=orthogonalEdgeStyle;rounded=0;orthogonalLoop=1;jettySize=auto;html=1;exitX=0.5;exitY=1;exitDx=0;exitDy=0;entryX=0;entryY=0.5;entryDx=0;entryDy=0;" edge="1" parent="1" source="IVPFjOqfa4s9VkKtOlMq-4" target="IVPFjOqfa4s9VkKtOlMq-32">
          <mxGeometry relative="1" as="geometry">
            <Array as="points">
              <mxPoint x="680" y="400" />
              <mxPoint x="620" y="400" />
              <mxPoint x="620" y="450" />
            </Array>
          </mxGeometry>
        </mxCell>
        <mxCell id="IVPFjOqfa4s9VkKtOlMq-49" style="edgeStyle=orthogonalEdgeStyle;rounded=0;orthogonalLoop=1;jettySize=auto;html=1;exitX=0.5;exitY=1;exitDx=0;exitDy=0;entryX=0;entryY=0.5;entryDx=0;entryDy=0;" edge="1" parent="1" source="IVPFjOqfa4s9VkKtOlMq-4" target="IVPFjOqfa4s9VkKtOlMq-34">
          <mxGeometry relative="1" as="geometry">
            <Array as="points">
              <mxPoint x="680" y="400" />
              <mxPoint x="620" y="400" />
              <mxPoint x="620" y="550" />
            </Array>
          </mxGeometry>
        </mxCell>
        <mxCell id="IVPFjOqfa4s9VkKtOlMq-50" style="edgeStyle=orthogonalEdgeStyle;rounded=0;orthogonalLoop=1;jettySize=auto;html=1;exitX=0.5;exitY=1;exitDx=0;exitDy=0;entryX=0;entryY=0.5;entryDx=0;entryDy=0;" edge="1" parent="1" source="IVPFjOqfa4s9VkKtOlMq-4" target="IVPFjOqfa4s9VkKtOlMq-35">
          <mxGeometry relative="1" as="geometry">
            <Array as="points">
              <mxPoint x="680" y="400" />
              <mxPoint x="620" y="400" />
              <mxPoint x="620" y="650" />
            </Array>
          </mxGeometry>
        </mxCell>
        <mxCell id="IVPFjOqfa4s9VkKtOlMq-4" value="Documentation" style="rounded=0;whiteSpace=wrap;html=1;fillColor=#e3c800;fontColor=#000000;strokeColor=#B09500;fontStyle=1" vertex="1" parent="1">
          <mxGeometry x="620" y="320" width="120" height="60" as="geometry" />
        </mxCell>
        <mxCell id="IVPFjOqfa4s9VkKtOlMq-51" style="edgeStyle=orthogonalEdgeStyle;rounded=0;orthogonalLoop=1;jettySize=auto;html=1;exitX=0.5;exitY=1;exitDx=0;exitDy=0;entryX=0;entryY=0.5;entryDx=0;entryDy=0;" edge="1" parent="1" source="IVPFjOqfa4s9VkKtOlMq-5" target="IVPFjOqfa4s9VkKtOlMq-36">
          <mxGeometry relative="1" as="geometry">
            <Array as="points">
              <mxPoint x="920" y="400" />
              <mxPoint x="860" y="400" />
              <mxPoint x="860" y="450" />
            </Array>
          </mxGeometry>
        </mxCell>
        <mxCell id="IVPFjOqfa4s9VkKtOlMq-52" style="edgeStyle=orthogonalEdgeStyle;rounded=0;orthogonalLoop=1;jettySize=auto;html=1;exitX=0.5;exitY=1;exitDx=0;exitDy=0;entryX=0;entryY=0.5;entryDx=0;entryDy=0;" edge="1" parent="1" source="IVPFjOqfa4s9VkKtOlMq-5" target="IVPFjOqfa4s9VkKtOlMq-38">
          <mxGeometry relative="1" as="geometry">
            <Array as="points">
              <mxPoint x="920" y="400" />
              <mxPoint x="860" y="400" />
              <mxPoint x="860" y="550" />
            </Array>
          </mxGeometry>
        </mxCell>
        <mxCell id="IVPFjOqfa4s9VkKtOlMq-53" style="edgeStyle=orthogonalEdgeStyle;rounded=0;orthogonalLoop=1;jettySize=auto;html=1;exitX=0.5;exitY=1;exitDx=0;exitDy=0;entryX=0;entryY=0.5;entryDx=0;entryDy=0;" edge="1" parent="1" source="IVPFjOqfa4s9VkKtOlMq-5" target="IVPFjOqfa4s9VkKtOlMq-39">
          <mxGeometry relative="1" as="geometry">
            <Array as="points">
              <mxPoint x="920" y="400" />
              <mxPoint x="860" y="400" />
              <mxPoint x="860" y="650" />
            </Array>
          </mxGeometry>
        </mxCell>
        <mxCell id="IVPFjOqfa4s9VkKtOlMq-5" value="Design" style="rounded=0;whiteSpace=wrap;html=1;fillColor=#e3c800;fontColor=#000000;strokeColor=#B09500;fontStyle=1" vertex="1" parent="1">
          <mxGeometry x="860" y="320" width="120" height="60" as="geometry" />
        </mxCell>
        <mxCell id="IVPFjOqfa4s9VkKtOlMq-55" style="edgeStyle=orthogonalEdgeStyle;rounded=0;orthogonalLoop=1;jettySize=auto;html=1;exitX=0.5;exitY=1;exitDx=0;exitDy=0;entryX=0;entryY=0.5;entryDx=0;entryDy=0;" edge="1" parent="1" source="IVPFjOqfa4s9VkKtOlMq-6" target="IVPFjOqfa4s9VkKtOlMq-40">
          <mxGeometry relative="1" as="geometry">
            <Array as="points">
              <mxPoint x="1160" y="400" />
              <mxPoint x="1100" y="400" />
              <mxPoint x="1100" y="450" />
            </Array>
          </mxGeometry>
        </mxCell>
        <mxCell id="IVPFjOqfa4s9VkKtOlMq-56" style="edgeStyle=orthogonalEdgeStyle;rounded=0;orthogonalLoop=1;jettySize=auto;html=1;exitX=0.5;exitY=1;exitDx=0;exitDy=0;entryX=0;entryY=0.5;entryDx=0;entryDy=0;" edge="1" parent="1" source="IVPFjOqfa4s9VkKtOlMq-6" target="IVPFjOqfa4s9VkKtOlMq-42">
          <mxGeometry relative="1" as="geometry">
            <Array as="points">
              <mxPoint x="1160" y="400" />
              <mxPoint x="1100" y="400" />
              <mxPoint x="1100" y="550" />
            </Array>
          </mxGeometry>
        </mxCell>
        <mxCell id="IVPFjOqfa4s9VkKtOlMq-57" style="edgeStyle=orthogonalEdgeStyle;rounded=0;orthogonalLoop=1;jettySize=auto;html=1;exitX=0.5;exitY=1;exitDx=0;exitDy=0;entryX=0;entryY=0.5;entryDx=0;entryDy=0;" edge="1" parent="1" source="IVPFjOqfa4s9VkKtOlMq-6" target="IVPFjOqfa4s9VkKtOlMq-43">
          <mxGeometry relative="1" as="geometry">
            <Array as="points">
              <mxPoint x="1160" y="400" />
              <mxPoint x="1100" y="400" />
              <mxPoint x="1100" y="650" />
            </Array>
          </mxGeometry>
        </mxCell>
        <mxCell id="IVPFjOqfa4s9VkKtOlMq-6" value="Implementation" style="rounded=0;whiteSpace=wrap;html=1;fillColor=#e3c800;fontColor=#000000;strokeColor=#B09500;fontStyle=1" vertex="1" parent="1">
          <mxGeometry x="1100" y="320" width="120" height="60" as="geometry" />
        </mxCell>
        <mxCell id="IVPFjOqfa4s9VkKtOlMq-58" style="edgeStyle=orthogonalEdgeStyle;rounded=0;orthogonalLoop=1;jettySize=auto;html=1;exitX=0.5;exitY=1;exitDx=0;exitDy=0;entryX=0;entryY=0.5;entryDx=0;entryDy=0;" edge="1" parent="1" source="IVPFjOqfa4s9VkKtOlMq-7" target="IVPFjOqfa4s9VkKtOlMq-44">
          <mxGeometry relative="1" as="geometry">
            <Array as="points">
              <mxPoint x="1400" y="400" />
              <mxPoint x="1340" y="400" />
              <mxPoint x="1340" y="450" />
            </Array>
          </mxGeometry>
        </mxCell>
        <mxCell id="IVPFjOqfa4s9VkKtOlMq-59" style="edgeStyle=orthogonalEdgeStyle;rounded=0;orthogonalLoop=1;jettySize=auto;html=1;exitX=0.5;exitY=1;exitDx=0;exitDy=0;entryX=0;entryY=0.5;entryDx=0;entryDy=0;" edge="1" parent="1" source="IVPFjOqfa4s9VkKtOlMq-7" target="IVPFjOqfa4s9VkKtOlMq-46">
          <mxGeometry relative="1" as="geometry">
            <Array as="points">
              <mxPoint x="1400" y="400" />
              <mxPoint x="1340" y="400" />
              <mxPoint x="1340" y="550" />
            </Array>
          </mxGeometry>
        </mxCell>
        <mxCell id="IVPFjOqfa4s9VkKtOlMq-60" style="edgeStyle=orthogonalEdgeStyle;rounded=0;orthogonalLoop=1;jettySize=auto;html=1;exitX=0.5;exitY=1;exitDx=0;exitDy=0;entryX=0;entryY=0.5;entryDx=0;entryDy=0;" edge="1" parent="1" source="IVPFjOqfa4s9VkKtOlMq-7" target="IVPFjOqfa4s9VkKtOlMq-47">
          <mxGeometry relative="1" as="geometry">
            <Array as="points">
              <mxPoint x="1400" y="400" />
              <mxPoint x="1340" y="400" />
              <mxPoint x="1340" y="650" />
            </Array>
          </mxGeometry>
        </mxCell>
        <mxCell id="IVPFjOqfa4s9VkKtOlMq-7" value="Testing" style="rounded=0;whiteSpace=wrap;html=1;fillColor=#e3c800;fontColor=#000000;strokeColor=#B09500;fontStyle=1" vertex="1" parent="1">
          <mxGeometry x="1340" y="320" width="120" height="60" as="geometry" />
        </mxCell>
        <mxCell id="IVPFjOqfa4s9VkKtOlMq-14" style="edgeStyle=orthogonalEdgeStyle;rounded=0;orthogonalLoop=1;jettySize=auto;html=1;exitX=0.5;exitY=1;exitDx=0;exitDy=0;entryX=0.5;entryY=0;entryDx=0;entryDy=0;" edge="1" parent="1" target="IVPFjOqfa4s9VkKtOlMq-7">
          <mxGeometry relative="1" as="geometry">
            <mxPoint x="750" y="300" as="sourcePoint" />
          </mxGeometry>
        </mxCell>
        <mxCell id="IVPFjOqfa4s9VkKtOlMq-15" value="" style="rounded=1;whiteSpace=wrap;html=1;fillColor=#b1ddf0;strokeColor=#121212;labelBackgroundColor=#FFFFFF;" vertex="1" parent="1">
          <mxGeometry x="180" y="420" width="120" height="60" as="geometry" />
        </mxCell>
        <mxCell id="IVPFjOqfa4s9VkKtOlMq-16" style="edgeStyle=orthogonalEdgeStyle;rounded=0;orthogonalLoop=1;jettySize=auto;html=1;exitX=0.5;exitY=1;exitDx=0;exitDy=0;fillColor=#b1ddf0;strokeColor=#121212;labelBackgroundColor=#FFFFFF;" edge="1" parent="1" source="IVPFjOqfa4s9VkKtOlMq-15" target="IVPFjOqfa4s9VkKtOlMq-15">
          <mxGeometry relative="1" as="geometry" />
        </mxCell>
        <mxCell id="IVPFjOqfa4s9VkKtOlMq-17" value="" style="rounded=1;whiteSpace=wrap;html=1;fillColor=#b1ddf0;strokeColor=#121212;labelBackgroundColor=#FFFFFF;" vertex="1" parent="1">
          <mxGeometry x="180" y="520" width="120" height="60" as="geometry" />
        </mxCell>
        <mxCell id="IVPFjOqfa4s9VkKtOlMq-18" value="" style="rounded=1;whiteSpace=wrap;html=1;fillColor=#b1ddf0;strokeColor=#121212;labelBackgroundColor=#FFFFFF;" vertex="1" parent="1">
          <mxGeometry x="180" y="620" width="120" height="60" as="geometry" />
        </mxCell>
        <mxCell id="IVPFjOqfa4s9VkKtOlMq-22" value="" style="rounded=1;whiteSpace=wrap;html=1;fillColor=#b1ddf0;strokeColor=#121212;labelBackgroundColor=#FFFFFF;" vertex="1" parent="1">
          <mxGeometry x="420" y="420" width="120" height="60" as="geometry" />
        </mxCell>
        <mxCell id="IVPFjOqfa4s9VkKtOlMq-23" style="edgeStyle=orthogonalEdgeStyle;rounded=0;orthogonalLoop=1;jettySize=auto;html=1;exitX=0.5;exitY=1;exitDx=0;exitDy=0;fillColor=#b1ddf0;strokeColor=#121212;labelBackgroundColor=#FFFFFF;" edge="1" parent="1" source="IVPFjOqfa4s9VkKtOlMq-22" target="IVPFjOqfa4s9VkKtOlMq-22">
          <mxGeometry relative="1" as="geometry" />
        </mxCell>
        <mxCell id="IVPFjOqfa4s9VkKtOlMq-24" value="" style="rounded=1;whiteSpace=wrap;html=1;fillColor=#b1ddf0;strokeColor=#121212;labelBackgroundColor=#FFFFFF;" vertex="1" parent="1">
          <mxGeometry x="420" y="520" width="120" height="60" as="geometry" />
        </mxCell>
        <mxCell id="IVPFjOqfa4s9VkKtOlMq-25" value="" style="rounded=1;whiteSpace=wrap;html=1;fillColor=#b1ddf0;strokeColor=#121212;labelBackgroundColor=#FFFFFF;" vertex="1" parent="1">
          <mxGeometry x="420" y="620" width="120" height="60" as="geometry" />
        </mxCell>
        <mxCell id="IVPFjOqfa4s9VkKtOlMq-32" value="" style="rounded=1;whiteSpace=wrap;html=1;fillColor=#b1ddf0;strokeColor=#121212;labelBackgroundColor=#FFFFFF;" vertex="1" parent="1">
          <mxGeometry x="660" y="420" width="120" height="60" as="geometry" />
        </mxCell>
        <mxCell id="IVPFjOqfa4s9VkKtOlMq-33" style="edgeStyle=orthogonalEdgeStyle;rounded=0;orthogonalLoop=1;jettySize=auto;html=1;exitX=0.5;exitY=1;exitDx=0;exitDy=0;fillColor=#b1ddf0;strokeColor=#121212;labelBackgroundColor=#FFFFFF;" edge="1" parent="1" source="IVPFjOqfa4s9VkKtOlMq-32" target="IVPFjOqfa4s9VkKtOlMq-32">
          <mxGeometry relative="1" as="geometry" />
        </mxCell>
        <mxCell id="IVPFjOqfa4s9VkKtOlMq-34" value="" style="rounded=1;whiteSpace=wrap;html=1;fillColor=#b1ddf0;strokeColor=#121212;labelBackgroundColor=#FFFFFF;" vertex="1" parent="1">
          <mxGeometry x="660" y="520" width="120" height="60" as="geometry" />
        </mxCell>
        <mxCell id="IVPFjOqfa4s9VkKtOlMq-35" value="" style="rounded=1;whiteSpace=wrap;html=1;fillColor=#b1ddf0;strokeColor=#121212;labelBackgroundColor=#FFFFFF;" vertex="1" parent="1">
          <mxGeometry x="660" y="620" width="120" height="60" as="geometry" />
        </mxCell>
        <mxCell id="IVPFjOqfa4s9VkKtOlMq-36" value="" style="rounded=1;whiteSpace=wrap;html=1;fillColor=#b1ddf0;strokeColor=#121212;labelBackgroundColor=#FFFFFF;" vertex="1" parent="1">
          <mxGeometry x="900" y="420" width="120" height="60" as="geometry" />
        </mxCell>
        <mxCell id="IVPFjOqfa4s9VkKtOlMq-37" style="edgeStyle=orthogonalEdgeStyle;rounded=0;orthogonalLoop=1;jettySize=auto;html=1;exitX=0.5;exitY=1;exitDx=0;exitDy=0;fillColor=#b1ddf0;strokeColor=#121212;labelBackgroundColor=#FFFFFF;" edge="1" parent="1" source="IVPFjOqfa4s9VkKtOlMq-36" target="IVPFjOqfa4s9VkKtOlMq-36">
          <mxGeometry relative="1" as="geometry" />
        </mxCell>
        <mxCell id="IVPFjOqfa4s9VkKtOlMq-38" value="" style="rounded=1;whiteSpace=wrap;html=1;fillColor=#b1ddf0;strokeColor=#121212;labelBackgroundColor=#FFFFFF;" vertex="1" parent="1">
          <mxGeometry x="900" y="520" width="120" height="60" as="geometry" />
        </mxCell>
        <mxCell id="IVPFjOqfa4s9VkKtOlMq-39" value="" style="rounded=1;whiteSpace=wrap;html=1;fillColor=#b1ddf0;strokeColor=#121212;labelBackgroundColor=#FFFFFF;" vertex="1" parent="1">
          <mxGeometry x="900" y="620" width="120" height="60" as="geometry" />
        </mxCell>
        <mxCell id="IVPFjOqfa4s9VkKtOlMq-40" value="" style="rounded=1;whiteSpace=wrap;html=1;fillColor=#b1ddf0;strokeColor=#121212;labelBackgroundColor=#FFFFFF;" vertex="1" parent="1">
          <mxGeometry x="1140" y="420" width="120" height="60" as="geometry" />
        </mxCell>
        <mxCell id="IVPFjOqfa4s9VkKtOlMq-41" style="edgeStyle=orthogonalEdgeStyle;rounded=0;orthogonalLoop=1;jettySize=auto;html=1;exitX=0.5;exitY=1;exitDx=0;exitDy=0;fillColor=#b1ddf0;strokeColor=#121212;labelBackgroundColor=#FFFFFF;" edge="1" parent="1" source="IVPFjOqfa4s9VkKtOlMq-40" target="IVPFjOqfa4s9VkKtOlMq-40">
          <mxGeometry relative="1" as="geometry" />
        </mxCell>
        <mxCell id="IVPFjOqfa4s9VkKtOlMq-42" value="" style="rounded=1;whiteSpace=wrap;html=1;fillColor=#b1ddf0;strokeColor=#121212;labelBackgroundColor=#FFFFFF;" vertex="1" parent="1">
          <mxGeometry x="1140" y="520" width="120" height="60" as="geometry" />
        </mxCell>
        <mxCell id="IVPFjOqfa4s9VkKtOlMq-43" value="" style="rounded=1;whiteSpace=wrap;html=1;fillColor=#b1ddf0;strokeColor=#121212;labelBackgroundColor=#FFFFFF;" vertex="1" parent="1">
          <mxGeometry x="1140" y="620" width="120" height="60" as="geometry" />
        </mxCell>
        <mxCell id="IVPFjOqfa4s9VkKtOlMq-44" value="" style="rounded=1;whiteSpace=wrap;html=1;fillColor=#b1ddf0;strokeColor=#121212;labelBackgroundColor=#FFFFFF;" vertex="1" parent="1">
          <mxGeometry x="1380" y="420" width="120" height="60" as="geometry" />
        </mxCell>
        <mxCell id="IVPFjOqfa4s9VkKtOlMq-45" style="edgeStyle=orthogonalEdgeStyle;rounded=0;orthogonalLoop=1;jettySize=auto;html=1;exitX=0.5;exitY=1;exitDx=0;exitDy=0;fillColor=#b1ddf0;strokeColor=#121212;labelBackgroundColor=#FFFFFF;" edge="1" parent="1" source="IVPFjOqfa4s9VkKtOlMq-44" target="IVPFjOqfa4s9VkKtOlMq-44">
          <mxGeometry relative="1" as="geometry" />
        </mxCell>
        <mxCell id="IVPFjOqfa4s9VkKtOlMq-46" value="" style="rounded=1;whiteSpace=wrap;html=1;fillColor=#b1ddf0;strokeColor=#121212;labelBackgroundColor=#FFFFFF;" vertex="1" parent="1">
          <mxGeometry x="1380" y="520" width="120" height="60" as="geometry" />
        </mxCell>
        <mxCell id="IVPFjOqfa4s9VkKtOlMq-47" value="" style="rounded=1;whiteSpace=wrap;html=1;fillColor=#b1ddf0;strokeColor=#121212;labelBackgroundColor=#FFFFFF;" vertex="1" parent="1">
          <mxGeometry x="1380" y="620" width="120" height="60" as="geometry" />
        </mxCell>
      </root>
    </mxGraphModel>
  </diagram>
</mxfile>
